# xmcd
#
# Track frame offsets:
#	150
#	21732
#	43272
#	63150
#	83425
#	99200
#	120250
#	135482
#	150707
#	172717
#
# Disc length: 2526 seconds
#
# Revision: 2
# Processed by: cddbd v1.5.2PL0 Copyright (c) Steve Scherf et al.
# Submitted via: EasyCDDAExtractor 15.3.0.1
#
DISCID=6d09dc0a
DTITLE=Alvaro Torres - Nada Se Compara Contigo
DYEAR=1991
DGENRE=Latin
TTITLE0=Nada Se Compara Contigo
TTITLE1=Buenos Amigos
TTITLE2=He Vivido Esperando Por Ti
TTITLE3=Te Olvidare
TTITLE4=A Tu Ritmo
TTITLE5=Te Dejo Libre
TTITLE6=Amame
TTITLE7=Estoy Enamorado De Ti
TTITLE8=Me Duele A Morir
TTITLE9=Con Todo Mi Amor
EXTD=YEAR: 1991
EXTT0=
EXTT1=
EXTT2=
EXTT3=
EXTT4=
EXTT5=
EXTT6=
EXTT7=
EXTT8=
EXTT9=
PLAYORDER=
